<svg width="177" height="258" viewBox="0 0 177 258" fill="none" xmlns="http://www.w3.org/2000/svg">
<path d="M-9.55735 36.5378C-9.55735 56.7789 -1.72966 90.9093 -31.2884 127.805C-60.16 163.843 -20.4405 49.7268 19.4504 42.6636C66.0802 34.4072 -14.2813 225.582 -18.425 186.675C-20.7432 164.909 46.706 50.6605 65.6785 69.6329C89.8139 93.7683 26.5264 231.627 11.7486 229.36C-14.3215 225.36 78.9191 66.7845 105.376 80.442C136.923 96.7277 84.9239 205.408 60.7952 211.237C41.4923 215.901 113.487 110.577 161.663 134.682" stroke="black" stroke-width="4" stroke-linecap="round"/>
<path d="M162.515 125.05C163.129 123.951 164.808 124.518 164.631 125.764C164.524 126.512 165.163 127.153 165.911 127.049L168.188 126.733C170.11 126.467 171.051 128.998 169.422 130.052L169.065 130.283C167.988 130.979 168.136 132.599 169.322 133.088L169.921 133.336C171.194 133.861 171.014 135.718 169.664 135.989C168.846 136.154 168.359 137.011 168.62 137.804C169.025 139.038 167.727 140.166 166.583 139.55L166.469 139.488C165.277 138.846 163.927 140.026 164.404 141.293C164.958 142.765 163.119 143.956 162.003 142.849L160.222 141.083C159.603 140.468 158.651 140.341 157.891 140.77L157.342 141.081C155.67 142.027 153.874 140.053 154.973 138.477C155.514 137.702 155.365 136.641 154.632 136.045L152.606 134.395C151.211 133.26 152.014 131.002 153.813 131.002H153.975C154.832 131.002 155.559 130.372 155.681 129.524L155.906 127.964C156.105 126.583 158.023 126.394 158.488 127.71C158.87 128.794 160.352 128.92 160.913 127.916L162.515 125.05Z" fill="#CD4631"/>
</svg>
