<svg width="275" height="275" viewBox="0 0 275 275" fill="none" xmlns="http://www.w3.org/2000/svg">
<path d="M56.8533 209.034C50.4055 200.295 43.9889 212.047 46.9298 218.841C48.1034 221.553 48.2167 224.819 51.3343 225.734C52.2992 226.017 53.1603 227.178 54.2265 227.178C56.0245 227.178 56.693 226.742 58.2861 226.197" stroke="#4D4D4D" stroke-width="3" stroke-linecap="round" stroke-linejoin="round"/>
<path d="M59.2383 227.667C60.5488 234.563 61.0577 242.112 64.3858 248.263C66.9043 252.917 72.0626 257.417 77.3607 258.097C80.8053 258.539 83.6374 259.507 87.2047 258.67C89.9436 258.027 92.4518 256.889 95.1117 256.109C97.3135 255.463 99.2207 253.886 100.79 252.186C102.795 250.013 103.611 247.175 105.194 244.939C106.266 243.426 106.521 240.035 106.521 238.183C106.521 235.705 106.999 233.47 106.999 230.991C106.999 225.638 105.088 220.46 105.088 215.162C105.088 213.613 104.221 212.131 104.133 210.504C104.018 208.374 103.529 205.553 103.151 203.421C102.803 201.453 102.223 199.409 102.223 197.373C102.223 194.018 100.951 197.374 99.3571 196.283" stroke="#4D4D4D" stroke-width="3" stroke-linecap="round" stroke-linejoin="round"/>
<path d="M52.5514 202.168C51.3826 197.818 52.2168 193.245 50.4021 189.146C49.3006 186.658 50.5783 182.879 51.0124 180.428C51.3253 178.661 51.1185 176.746 51.1185 174.952C51.1185 173.399 52.3008 172.524 52.5248 171.029C52.741 169.587 51.9343 168.124 50.6409 167.46C49.396 166.821 49.9667 167.23 50.8532 166.371C51.3508 165.888 53.2381 165.038 53.0024 164.191C52.8411 163.611 52.0996 163.87 54.0372 163.428C55.6453 163.061 57.6711 161.467 59.2378 161.467C60.8988 161.467 61.9188 161.115 63.6424 160.486C65.5135 159.803 66.3808 161.617 67.6225 161.385C69.091 161.111 70.1819 159.069 71.8678 159.069C72.0498 159.069 72.8063 159.963 73.6721 159.996C74.9934 160.046 76.5366 160.938 77.8644 160.377C78.7487 160.003 78.0022 161.689 79.0584 161.93C81.412 162.467 83.7006 160.061 85.7449 159.287C87.7101 158.544 86.8761 159.35 86.3552 160.486C86.0274 161.201 90.307 161.204 91.1312 161.358C93.3472 161.772 92.285 161.634 91.0251 162.693C89.3411 164.107 91.7923 164.409 92.9355 164.409C95.2339 164.409 94.646 164.242 94.5806 165.989C94.511 167.846 94.9029 167.682 96.0134 168.822C96.7589 169.588 96.8267 170.807 97.685 171.492C98.5068 172.149 100.312 170.782 99.7812 172.555C99.2593 174.296 98.037 175.763 97.5524 177.54C97.2372 178.696 99.7388 178.532 100.312 179.12C101.833 180.682 100.196 181.251 99.8608 182.798C99.6026 183.991 100.51 184.369 100.763 185.277C101.058 186.339 99.3617 186.825 99.9404 187.947C100.57 189.169 100.793 188.923 99.8343 190.399" stroke="#4D4D4D" stroke-width="3" stroke-linecap="round" stroke-linejoin="round"/>
<path d="M47.7771 167.352C46.7133 167.991 43.008 169.916 45.8666 171.384C47.0619 171.997 45.5971 171.174 45.8932 173.454C46.2431 176.149 47.0518 175.832 45.1502 178.385C43.6191 180.441 45.0756 181.338 44.0624 183.534C43.4867 184.782 43.0528 186.456 43.001 187.838C42.9203 189.992 47.6822 190.897 46.53 192.606C46.0302 193.347 44.5773 194.388 44.6461 195.412C44.7563 197.052 47.4034 198.698 48.4404 199.716C48.9499 200.217 50.42 201.542 49.5813 202.168C48.6296 202.879 49.583 202.809 50.059 203.639C50.452 204.325 51.3856 205.601 51.3856 205.601C51.3856 205.601 50.9319 202.082 50.3508 200.425C49.8331 198.948 48.97 197.907 47.9893 196.774C47.6032 196.328 48.7246 195.825 48.9976 195.494C50.9253 193.155 51.545 186.912 48.2547 185.223C47.6611 184.918 48.4473 186.712 48.9711 187.13C49.9521 187.913 50.1019 183.707 50.059 183.316C49.7984 180.942 48.9733 179.368 47.3525 177.704C46.2449 176.567 46.6131 176.794 47.8036 176.641C49.3177 176.447 51.1085 174.834 49.4487 173.508C48.2856 172.58 49.9526 176.941 50.6427 177.649" stroke="#4D4D4D" stroke-width="3" stroke-linecap="round" stroke-linejoin="round"/>
<path d="M55.8949 205.111C56.5814 206.013 57.6952 206.749 58.2829 207.672C58.8223 208.519 58.7985 209.602 59.2381 210.505C60.3481 212.784 61.1485 208.978 61.1485 207.944C61.1485 207.054 60.2576 203.404 59.3442 205.983C59.1398 206.56 59.7066 204.935 59.7157 204.511C59.7491 202.967 59.7106 201.417 59.2381 199.935C58.4871 197.579 56.6454 194.821 54.9397 193.069C54.5118 192.63 55.7826 194.075 56.3725 194.214C57.6937 194.524 58.2603 193.591 58.2829 192.361C58.2987 191.501 56.4111 184.457 54.5682 186.586C54.4809 186.686 57.8053 188.125 57.8053 185.251C57.8053 184.058 55.6285 182.507 57.8053 183.997C59.9193 185.444 62.487 184.042 63.7223 182.09C65.3043 179.591 62.232 179.198 64.7571 181.791C67.0392 184.134 70.52 182.632 72.3192 180.374C72.781 179.795 74.5703 182.105 76.4319 181.764C77.4312 181.58 80.9556 178.92 81.6855 179.857C83.9237 182.729 88.7179 182.182 91.7152 182.063C92.8678 182.018 97.9049 178.482 96.0137 177.268C94.8329 176.511 94.5658 180.033 96.4913 178.522C99.1332 176.447 97.5727 173.7 95.5361 172.147C93.4781 170.577 95.8086 171.736 95.43 169.695C94.9432 167.071 91.8545 163.401 88.9558 165.227C85.1332 167.635 90.5478 170.111 90.5478 167.134C90.5478 163.178 83.2984 161.558 80.5711 163.048C77.8484 164.535 81.782 164.728 80.3854 164.137C78.6047 163.384 76.512 163.081 74.6011 162.966C73.8323 162.919 72.3321 163.249 71.6824 162.693C70.6992 161.852 68.33 161.126 67.0921 160.732C62.8239 159.372 63.3349 163.236 64.9428 166.262C66.4829 169.161 59.9973 167.344 58.787 167.161C55.5437 166.672 53.6187 171.22 57.0358 171.22C58.3047 171.22 57.3283 170.683 56.7705 170.539C54.979 170.08 53.3971 170.805 52.1006 172.092C49.1418 175.029 50.3464 181.451 55.3111 179.829C57.0164 179.272 54.9773 178.249 54.1437 178.249C51.5921 178.249 48.4669 179.86 47.6164 182.445C46.0424 187.228 57.886 181.129 59.2381 179.993C60.1382 179.237 61.1025 178.455 59.9811 177.541C59.0993 176.822 56.414 175.143 57.54 175.143C58.1741 175.143 60.7864 177.581 61.6261 177.922C63.0036 178.481 65.4142 179.172 66.6675 177.922C69.5863 175.011 63.8799 173.66 64.1203 174.326C65.9236 179.325 74.788 176.356 77.5463 174.326C78.6157 173.539 78.722 172.232 77.1748 173.073C75.4941 173.987 74.1135 176.161 74.8399 178.14C76.5563 182.817 87.0183 180.462 87.7883 176.015C88.0259 174.643 85.5521 174.022 84.6573 174.544C82.3651 175.881 84.3591 178.437 86.1432 178.767C90.8088 179.629 98.9127 174.072 91.6887 170.894C90.1235 170.205 87.2074 169.827 86.0901 171.547C84.7224 173.654 88.825 173.556 89.7783 173.373C98.0979 171.771 88.3189 167.062 85.7983 165.636C83.7729 164.49 78.6452 161.107 80.4385 166.262C80.6672 166.92 79.2701 164.926 79.0322 164.682C77.6454 163.258 75.6788 162.199 73.7785 161.794C71.5321 161.316 68.7147 161.321 67.0125 163.157C65.8932 164.363 67.2453 164.773 68.3126 164.873C68.674 164.907 70.8523 164.984 69.8781 164.137C68.4425 162.89 66.2792 162.899 64.5183 162.693C63.2279 162.543 60.3067 162.119 59.8484 164.001C59.3729 165.954 61.1735 169.112 62.6875 170.185C64.3117 171.337 62.9281 170.298 61.9976 169.913C60.5295 169.305 58.1837 168.522 56.5848 168.932C54.6882 169.419 58.9097 171.108 59.132 171.166C62.3464 172.008 66.1314 171.434 69.2147 170.294C69.9589 170.019 73.0856 168.519 72.0273 167.243C71.6175 166.749 70.2862 165.913 69.8516 166.862C68.7589 169.246 76.8854 168.126 77.7586 167.57C78.6495 167.002 74.2296 165.627 74.8399 168.823C75.4996 172.278 81.0566 172.348 83.0122 170.185C84.9862 168.003 81.1932 167.722 82.3754 169.695C83.7192 171.937 84.7714 169.385 81.3671 168.578C76.2814 167.373 73.0183 169.551 68.1534 170.24C64.8298 170.71 65.1129 172.176 63.059 174.435C61.0445 176.651 59.0926 175.689 56.8766 176.969C54.7116 178.219 56.129 183.818 55.8683 185.959C55.6181 188.014 51.6429 186.439 50.9596 189.446C50.5529 191.236 51.7596 193.132 53.0558 194.241C53.6537 194.752 55.7021 195.098 56.0275 195.766C56.4668 196.668 54.041 195.629 53.0823 195.848C51.8111 196.138 52.0619 197.991 52.3394 198.927C53.1441 201.641 54.95 203.703 55.4173 206.582" stroke="#4D4D4D" stroke-width="3" stroke-linecap="round" stroke-linejoin="round"/>
<path d="M56.3727 219.821C55.3971 218.444 54.8752 217.667 54.9398 216.007C54.982 214.925 55.5878 215.528 54.7276 214.645C54.0749 213.975 52.5797 213.879 52.0742 214.917" stroke="#4D4D4D" stroke-width="3" stroke-linecap="round" stroke-linejoin="round"/>
<path d="M69.7461 203.15C71.2724 201.144 73.0293 200.513 75.3712 199.826C76.6356 199.455 79.01 199.615 78.8206 199.227" stroke="#4D4D4D" stroke-width="3" stroke-linecap="round" stroke-linejoin="round"/>
<path d="M93.1484 198.244C95.0776 197.858 97.2715 197.175 98.8797 198.734C99.4507 199.288 102.435 200.696 100.79 200.696" stroke="#4D4D4D" stroke-width="3" stroke-linecap="round" stroke-linejoin="round"/>
<path d="M77.8672 209.523C77.8672 209.523 77.8673 209.523 77.8673 209.523" stroke="#4D4D4D" stroke-width="3" stroke-linecap="round" stroke-linejoin="round"/>
<path d="M96.4922 209.033C96.4922 209.033 96.4923 209.033 96.4923 209.033" stroke="#4D4D4D" stroke-width="3" stroke-linecap="round" stroke-linejoin="round"/>
<path d="M88.3714 205.6C88.3714 211.652 92.5891 217.446 94.1292 222.981C94.7847 225.336 93.9367 225.705 91.4758 225.705C89.0799 225.705 87.8559 225.518 86.4609 227.666" stroke="#4D4D4D" stroke-width="3" stroke-linecap="round" stroke-linejoin="round"/>
<path d="M164.045 148.776C160.906 146.507 158.959 146.813 156.096 149.464C153.422 151.941 152.56 156.534 154.964 159.485C158.693 164.063 167.123 162.68 169.889 157.876C171.231 155.545 170.821 157.36 171.705 158.075C173.905 159.855 175.037 159.987 177.247 157.892C179.904 155.373 182.063 145.216 175.51 146.556C174.782 146.706 172.443 148.325 173.544 148.1C175.001 147.802 174.97 146.008 174.609 144.877C173.644 141.861 169.425 140.39 166.768 141.511C164.783 142.348 164.279 144.785 162.682 145.707C161.139 146.598 155.02 151.816 159.759 151.251" stroke="#4D4D4D" stroke-width="2.5" stroke-linecap="round" stroke-linejoin="round"/>
<path d="M125.943 162.99C123.52 162.517 120.666 161.811 120.054 165.101C119.599 167.547 122.099 170.621 124.693 170.212C125.597 170.069 128.576 168.679 129.165 169.268C130.644 170.747 131.536 169.041 132.443 167.601C133.502 165.919 131.899 160.508 129.693 160.018C128.291 159.706 122.764 163.65 123.443 163.99" stroke="#4D4D4D" stroke-width="2.5" stroke-linecap="round" stroke-linejoin="round"/>
<path d="M166.044 70.1659C168.786 66.6063 173.723 62.8818 178.552 63.1504C180.703 63.2701 181.755 68.1131 182.444 69.6648C184.886 75.1682 172.585 75.8852 175.05 81.4406C175.518 82.4951 176.921 82.8936 177.83 83.4729C179.759 84.7023 180.054 84.1226 180.054 82.1923C180.054 80.6982 176.815 76.8126 178.552 75.7893C183.266 73.0125 182.25 65.6559 176.301 65.6559C171.728 65.6559 165.043 66.4966 165.043 72.4208C165.043 75.3732 167.539 74.5043 168.768 72.9219C170.251 71.0116 171.306 68.6626 174.049 68.6626C175.975 68.6626 179.749 67.9179 180.054 70.667C180.105 71.1333 181.111 73.3461 180.943 73.5622C180.247 74.4581 179.551 75.8086 179.053 76.9307C178.218 78.8119 175.55 78.5635 175.55 80.9395C175.55 82.5264 175.636 82.8006 176.551 83.9461C176.854 84.3251 178.622 85.3373 178.052 84.1967" stroke="#CD4631" stroke-width="3" stroke-linecap="round" stroke-linejoin="round"/>
<path d="M181.557 91.2129C181.661 95.3813 183.699 92.8289 182.168 91.6026C181.155 90.7907 180.871 93.0134 182.057 93.607C183.389 94.274 183.081 90.9111 182.668 91.3242C181.595 92.399 183.873 95.3007 181.557 94.7206" stroke="#CD4631" stroke-width="3" stroke-linecap="round" stroke-linejoin="round"/>
<path d="M155.195 26.236C148.679 17.9085 137.317 20.4852 130.307 26.985C123.481 33.3142 119.286 49.1857 125.58 57.0675C127.331 59.2599 128.873 61.6954 130.937 63.6008C131.674 64.2805 129.046 64.3056 128.055 64.4527C124.989 64.9081 123.479 68.2232 124.316 71.0767C124.756 72.5736 125.984 73.6024 127.466 73.9376C128.488 74.1689 128.712 74.5301 127.537 74.6477C124.78 74.9236 122.819 75.0713 120.929 77.3837C118.14 80.7971 119.4 83.7451 122.705 85.9659C126.047 88.2108 125.429 89.2006 122.319 91.076C119.854 92.5621 118.929 95.5778 118.076 98.2883C116.6 102.977 114.498 110.043 118.65 113.804C123.849 118.512 131.631 118.695 138.097 117.493C140.246 117.093 142.803 116.911 144.482 115.343C144.935 114.919 146.165 113.402 144.875 113.126C142.574 112.635 141.74 116.76 141.62 118.19C140.771 128.328 155.907 131.789 163.208 130.527C167.951 129.708 172.1 127.417 175.825 124.449C178.757 122.114 182.882 119.523 184.824 116.198C185.762 114.593 185.419 116.465 185.969 117.927C187.284 121.426 191.079 120.756 193.94 119.896C197.806 118.734 201.27 116.248 203.605 112.935C203.947 112.449 205.676 109.239 205.966 109.676C209.514 115.025 211.638 107.499 214.673 105.68C215.181 105.375 216.131 108.834 216.424 109.398C218.64 113.66 220.951 117.49 225.949 118.741C236.648 121.421 247.852 116.885 255.253 109.175C258.37 105.928 260.091 101.439 256.144 97.8413C255.19 96.971 258.2 97.9788 258.763 97.9378C261.856 97.7126 266.336 97.3234 268.589 94.9053C271.156 92.1495 272.539 89.7056 271.523 85.8518C270.813 83.1563 269.254 81.555 266.698 80.546C265.573 80.1021 263.309 80.0196 264.956 78.9786C266.608 77.9339 267.375 75.3002 267.525 73.4451C267.76 70.5171 265.75 68.5228 263.15 67.5306C261.978 67.0833 258.374 67.5476 258.977 67.4872C260.983 67.2864 262.086 59.421 261.937 57.9189C261.271 51.2426 254.586 46.0405 247.804 46.4751C246.68 46.5471 245.529 47.2152 246.381 46.0541C247.358 44.7211 247.408 42.331 247.8 40.7893C250.007 32.106 246.441 24.7704 239.665 19.2169C234.088 14.646 225.499 12.1322 218.787 15.2871C218.354 15.4909 215.536 18.7629 216.388 18.6777C217.688 18.5476 217.272 15.4261 217.096 14.7392C216.268 11.5204 212.481 8.85221 209.718 7.43481C205.647 5.34647 199.757 6.06646 195.479 7.24617C191.709 8.2858 188.868 10.7451 186.923 14.0448C185.892 15.7933 186.766 17.2542 185.489 16.0837C183.419 14.1855 182.659 12.9418 179.422 13.2074C175.608 13.5203 172.129 14.5192 169.1 16.9043C167.549 18.1254 166.161 20.7759 166.364 22.8131C166.367 22.8442 165.937 20.8835 165.635 20.1197C164.004 16.0053 158.55 16.1451 155.655 19.0438C154.435 20.2649 153.738 22.1228 153.6 23.8343C153.528 24.7295 153.027 27.5785 152.78 25.0946" stroke="#4D4D4D" stroke-width="2.5" stroke-linecap="round" stroke-linejoin="round"/>
<path d="M194.478 41.1034C193.743 36.8995 198.382 36.4349 201.705 35.5913C204.343 34.9216 206.855 34.3646 209.378 35.814C211.019 36.7571 213.327 39.1738 213.464 41.1034C213.976 48.2832 207.693 52.6287 200.788 52.6287C197.896 52.6287 198.005 57.835 197.98 59.6442C197.94 62.5666 197.253 65.3922 197.591 68.3299C197.684 69.1382 198.163 73.5965 199.481 72.0882C201.664 69.5898 201.983 64.2759 201.983 61.1475C201.983 58.1685 201.152 55.5701 204.235 54.3826C206.962 53.332 210.278 52.1252 212.102 49.6221C214.724 46.0245 215.237 41.0186 212.463 37.373C210.12 34.2923 203.563 34.1544 199.982 34.088C195.287 34.0009 193.131 36.7051 190.752 40.6023C189.329 42.935 190.047 46.8617 193.477 46.0031C197.142 45.0855 199.691 42.953 202.261 40.3796C203.636 39.0027 207.453 39.9449 208.989 40.7137C210.816 41.6287 209.726 44.7877 209.211 46.1144C207.15 51.4225 200.296 51.2456 198.592 56.0251C197.304 59.6357 197.48 63.3575 197.48 67.1328C197.48 68.2988 196.722 72.0634 198.981 71.0581C203.288 69.1413 201.269 60.991 201.483 57.1386C201.605 54.9312 204.52 54.6158 205.986 53.8815C207.76 52.9931 210.218 50.3894 211.101 48.6199C212.3 46.2187 212.519 42.5578 210.74 40.3796C208.522 37.6647 204.753 39.3276 202.484 37.5957C200.512 36.0914 196.369 41.2136 194.978 42.6067C194.431 43.1544 193.82 43.6349 193.227 44.11C192.957 44.3257 192.172 45.8917 191.976 45.8917C191.358 45.8917 192.702 44.8659 193.199 44.4998C194.875 43.2653 196.449 41.8565 197.674 40.1569C199.039 38.2644 201.251 39.099 203.484 39.099C204.767 39.099 207.666 38.5418 208.738 39.3774C210.364 40.6436 210.956 41.7829 208.488 42.6067" stroke="#CD4631" stroke-width="3" stroke-linecap="round" stroke-linejoin="round"/>
<path d="M199.979 80.1894C192.682 81.8336 203.226 84.8239 201.869 80.5791C201.409 79.1386 199.351 79.658 200.007 81.1916C200.296 81.8671 202.927 83.011 200.479 82.1938" stroke="#CD4631" stroke-width="3" stroke-linecap="round" stroke-linejoin="round"/>
<path d="M230.137 96.0501C233.571 96.0501 238.024 95.2486 241.362 96.2236C243.311 96.7931 244.344 98.0319 245.744 99.346C247.402 100.902 249.384 102.978 249.139 105.435C248.84 108.431 244.979 109.905 242.574 110.708C239.141 111.854 234.574 111.644 231.003 111.107C228.188 110.684 223.206 109.796 222.1 106.597C221.201 103.997 223.14 102.607 225.356 101.983C228.784 101.017 232.372 100.26 235.888 99.7277C237.592 99.4697 241.463 98.3296 243.163 99.4848C243.876 99.969 244.593 102.084 244.757 102.902C245.019 104.217 244.321 104.947 243.215 105.556C240.791 106.891 237.839 107.51 235.178 106.51C231.649 105.185 236.143 102.136 238.105 102C240.418 101.84 241.303 102.764 242.124 104.932C242.704 106.464 242.687 107.425 240.755 107.586C238.457 107.778 236.064 107.579 233.879 106.84C230.477 105.69 226.061 103.679 223.728 100.803C222.641 99.4634 222.654 97.6712 222.654 96.0501C222.654 93.3616 222.677 93.5795 225.737 93.5522C231.03 93.5051 236.31 93.24 241.604 93.24C243.262 93.24 244.799 93.0709 246.281 93.9338C247.302 94.528 247.341 94.7826 247.286 95.9461C247.087 100.134 242.448 101.204 239.179 102.295" stroke="#4D4D4D" stroke-width="1.5" stroke-linecap="round"/>
<path d="M137.534 57.6431C137.048 55.1495 135.486 52.8616 134.554 50.4616C133.744 48.3737 133.48 45.6635 133.48 43.4188C133.48 39.1264 134.083 34.4899 137.915 31.727C140.85 29.6106 146.244 28.5849 149.139 31.4842C151.954 34.3032 151.527 38.7426 152.344 42.3433C153.194 46.0911 151.314 51.9219 147.199 53.0809C145.859 53.4585 142.429 54.3083 141.431 52.9248C139.984 50.9182 139.506 47.9058 138.85 45.5698C138.146 43.0606 135.658 37.0524 139.699 35.8382C144.718 34.3303 146.816 42.6311 147.13 46.0208C147.314 48.0085 147.467 49.7614 146.125 51.3289C145.566 51.9822 143.126 53.7961 142.367 52.6126C141.312 50.9701 140.543 43.0885 142.834 42.9678C143.374 42.9393 144.938 42.7328 145.259 43.28C145.838 44.2661 145.134 45.8264 144.22 46.229C142.424 47.0204 141.899 46.9064 141.899 44.9973C141.899 43.2586 142.651 41.9425 144.636 42.7943C145.613 43.2138 145.726 45.1341 145.883 45.9861C146.378 48.6713 146.264 51.4217 146.264 54.1391C146.264 58.3354 143.129 60.6361 140.34 63.5757" stroke="#4D4D4D" stroke-width="1.5" stroke-linecap="round"/>
<path d="M139.4 109.789C135.712 109.789 132.472 110.091 129.423 107.846C127.339 106.311 126.617 104.848 126.617 102.225C126.617 100.363 126.828 98.8652 128.176 97.4377C129.429 96.1112 130.572 96.0754 132.333 95.6683C132.983 95.5181 137.582 94.2522 138.084 95.4254C138.818 97.1412 137.843 100.069 136.906 101.531C135.867 103.154 134.949 104.75 133.164 105.66C132.768 105.862 129.788 107.003 129.735 106.042C129.635 104.241 129.894 102.898 130.982 101.427C131.636 100.543 134.105 100.998 135.035 101.046C138.407 101.219 136.902 109.614 133.234 105.799C132.446 104.98 132.321 103.344 132.887 102.399C134.95 98.9565 138.616 97.4685 142.206 96.3622" stroke="#4D4D4D" stroke-width="1.5" stroke-linecap="round"/>
<path d="M250.712 65.4495C252.363 64.4411 253.829 63.1688 253.829 61.0781C253.829 59.7408 254.162 58.4126 253.033 57.4873C252.203 56.8078 245.839 54.2716 245.723 56.7067C245.643 58.3987 245.723 60.1127 245.723 61.8067C245.723 63.6498 247.68 63.2864 249.083 63.2638C251.688 63.2217 252.008 61.2684 251.006 58.9271C250.467 57.6674 248.644 56.7814 247.94 58.7189C247.573 59.73 252.618 58.8924 249.153 58.8924" stroke="#4D4D4D" stroke-width="1.5" stroke-linecap="round"/>
<path d="M260.353 89.2715C261.041 89.2715 262.976 89.0352 263.208 90.0785C263.413 91.002 263.079 91.5419 262.412 92.0612C260.95 93.1999 257.108 92.6464 257.965 90.1482C258.575 88.3709 260.375 87.1899 262.243 87.1194C262.693 87.1024 263.25 86.9627 263.486 87.3884C263.715 87.8007 263.595 88.6162 263.397 89.0124C262.828 90.1518 261.763 91.1301 260.571 91.284C258.904 91.4995 254.98 92.2687 254.98 89.8095" stroke="#4D4D4D" stroke-width="1.5" stroke-linecap="round"/>
</svg>
